<svg xmlns="http://www.w3.org/2000/svg" version="1.1" xmlns:xlink="http://www.w3.org/1999/xlink" width="240" height="240"><svg width="240" height="240" viewBox="0 0 240 240" fill="none" xmlns="http://www.w3.org/2000/svg">
<circle cx="120" cy="120" r="107" fill="white"></circle>
<path d="M120 0C186.275 0 240 53.7278 240 120C240 186.275 186.275 240 120 240C53.7278 240 0 186.275 0 120C0 53.7278 53.7278 0 120 0ZM64.5449 33.8848C62.076 32.597 59.3373 35.0761 60.373 37.6611L65.9619 51.6113C66.2876 52.4241 66.2419 53.339 65.8369 54.1152L58.8848 67.4395C57.5969 69.9084 60.0761 72.6471 62.6611 71.6113L76.6113 66.0225C77.4241 65.6968 78.339 65.7424 79.1152 66.1475L92.4395 73.0996C92.6157 73.1915 92.7942 73.2615 92.9717 73.3164V107.303H56.001V139.068C56.001 177.08 86.7615 208.002 124.57 208.002C162.382 208.002 193.145 177.08 193.145 139.068C193.144 101.057 162.381 70.1334 124.57 70.1309H96.8154C96.7852 69.866 96.7201 69.5957 96.6113 69.3242L91.0225 55.373C90.6968 54.5603 90.7424 53.6454 91.1475 52.8691L98.0996 39.5449C99.3874 37.076 96.9092 34.3375 94.3242 35.373L80.373 40.9619C79.5603 41.2876 78.6454 41.2419 77.8691 40.8369L64.5449 33.8848ZM124.57 107.303C141.996 107.303 156.174 121.551 156.174 139.068C156.174 156.583 141.996 170.832 124.57 170.835C107.147 170.835 92.9717 156.583 92.9717 139.068V107.303H124.57Z" fill="black"></path>
</svg><style>@media (prefers-color-scheme: light) { :root { filter: none; } }
@media (prefers-color-scheme: dark) { :root { filter: none; } }
</style></svg>